<?xml version="1.0" standalone="no"?>
<!DOCTYPE svg PUBLIC "-//W3C//DTD SVG 20010904//EN"
 "http://www.w3.org/TR/2001/REC-SVG-20010904/DTD/svg10.dtd">
<svg version="1.0" xmlns="http://www.w3.org/2000/svg"
 width="274.000000pt" height="263.000000pt" viewBox="0 0 274.000000 263.000000"
 preserveAspectRatio="xMidYMid meet">

<g transform="translate(0.000000,263.000000) scale(0.100000,-0.100000)"
fill="#000000" stroke="none">
<path d="M1115 2405 c-320 -75 -598 -296 -740 -590 -96 -199 -127 -420 -94
-658 l12 -88 -79 -82 c-159 -164 -188 -197 -181 -203 7 -8 70 28 192 110 127
85 257 166 267 166 22 0 1 -35 -77 -129 -78 -94 -96 -121 -79 -121 3 0 42 16
85 35 44 19 82 35 84 35 18 0 -7 -33 -90 -119 -52 -55 -95 -104 -95 -110 0 -5
32 4 71 22 l72 31 30 -39 c17 -22 63 -72 103 -112 370 -364 944 -417 1380
-127 218 144 383 379 456 647 20 71 23 106 23 262 -1 165 -3 188 -28 279 -15
54 -45 136 -66 181 -44 94 -45 88 31 172 81 90 40 76 -147 -52 -102 -69 -185
-122 -185 -118 0 4 50 58 112 120 62 62 110 114 107 117 -2 3 -36 -13 -74 -36
-77 -45 -118 -63 -113 -50 1 5 68 67 147 137 79 71 140 130 134 132 -5 2 -62
-17 -126 -42 l-117 -45 -82 65 c-138 109 -309 187 -481 220 -123 23 -329 19
-452 -10z m170 -539 c46 -20 55 -42 55 -140 l0 -84 -108 -36 c-59 -20 -113
-36 -120 -36 -9 0 -12 26 -12 95 l0 95 -107 0 c-58 0 -104 -2 -101 -5 2 -3 22
-11 44 -18 l39 -14 5 -414 5 -414 57 -3 57 -3 3 62 3 62 112 38 c61 20 114 35
117 31 3 -3 6 -58 6 -123 0 -108 -2 -120 -22 -144 -32 -37 -79 -44 -278 -45
-192 0 -234 7 -271 46 l-24 26 -2 483 c-2 477 -2 484 19 510 11 15 30 31 42
35 11 5 117 9 234 9 162 1 221 -2 247 -13z m685 -46 l0 -60 -160 0 -160 0 0
-175 c0 -96 3 -175 8 -175 4 0 54 16 111 35 57 19 108 35 113 35 5 0 8 -25 6
-57 l-3 -56 -90 -32 c-49 -17 -97 -34 -105 -38 -8 -3 -44 -15 -80 -26 l-65
-19 53 -1 52 -1 0 -240 0 -240 -115 0 -115 0 0 158 c-1 86 -1 325 0 531 1 372
0 374 -21 398 l-22 23 296 0 297 0 0 -60z"/>
</g>
</svg>
